<svg width="84" height="84" viewBox="0 0 84 84" fill="none" xmlns="http://www.w3.org/2000/svg">
<path d="M81.8337 36.75L76.2087 30.1667C75.167 28.9167 74.292 26.5833 74.292 24.9167V17.8333C74.292 13.4167 70.667 9.79167 66.2503 9.79167H59.167C57.5003 9.79167 55.1253 8.91667 53.8753 7.875L47.292 2.25C44.417 -0.208333 39.7087 -0.208333 36.8337 2.25L30.167 7.875C28.917 8.91667 26.5837 9.79167 24.917 9.79167H17.7087C13.292 9.79167 9.66699 13.4167 9.66699 17.8333V24.9167C9.66699 26.5417 8.83366 28.875 7.79199 30.125L2.16699 36.75C-0.249674 39.6667 -0.249674 44.3333 2.16699 47.1667L7.79199 53.7917C8.83366 55 9.66699 57.375 9.66699 59V66.125C9.66699 70.5417 13.292 74.1667 17.7087 74.1667H24.9587C26.5837 74.1667 28.9587 75.0417 30.2087 76.0833L36.792 81.7083C39.667 84.1667 44.3753 84.1667 47.2503 81.7083L53.8337 76.0833C55.0837 75.0417 57.417 74.1667 59.0837 74.1667H66.167C70.5836 74.1667 74.2087 70.5417 74.2087 66.125V59.0417C74.2087 57.375 75.0837 55.0417 76.1253 53.7917L81.7503 47.2083C84.292 44.375 84.292 39.6667 81.8337 36.75ZM38.8753 25.875C38.8753 24.1667 40.292 22.75 42.0003 22.75C43.7087 22.75 45.1253 24.1667 45.1253 25.875V46C45.1253 47.7083 43.7087 49.125 42.0003 49.125C40.292 49.125 38.8753 47.7083 38.8753 46V25.875ZM42.0003 62.2917C39.7087 62.2917 37.8337 60.4167 37.8337 58.125C37.8337 55.8333 39.667 53.9583 42.0003 53.9583C44.292 53.9583 46.167 55.8333 46.167 58.125C46.167 60.4167 44.3337 62.2917 42.0003 62.2917Z" fill="#FF5555"/>
</svg>
