<svg width="50" height="50" viewBox="0 0 50 50" fill="none" xmlns="http://www.w3.org/2000/svg">
<path d="M45.875 35.0416L39.3542 19.7916C38.1667 16.9999 36.3958 15.4166 34.375 15.3124C32.375 15.2083 30.4375 16.6041 28.9583 19.2708L25 26.3749C24.1667 27.8749 22.9792 28.7708 21.6875 28.8749C20.375 28.9999 19.0625 28.3124 18 26.9583L17.5417 26.3749C16.0625 24.5208 14.2292 23.6249 12.3542 23.8124C10.4792 23.9999 8.87501 25.2916 7.81251 27.3958L4.20835 34.5833C2.91668 37.1874 3.04168 40.2083 4.56251 42.6666C6.08335 45.1249 8.72918 46.6041 11.625 46.6041H38.2083C41 46.6041 43.6042 45.2083 45.1458 42.8749C46.7292 40.5416 46.9792 37.6041 45.875 35.0416Z" fill="#C8C8C8"/>
<path d="M14.5208 17.4583C18.4098 17.4583 21.5625 14.3057 21.5625 10.4167C21.5625 6.52766 18.4098 3.375 14.5208 3.375C10.6318 3.375 7.47916 6.52766 7.47916 10.4167C7.47916 14.3057 10.6318 17.4583 14.5208 17.4583Z" fill="#C8C8C8"/>
</svg>
