<svg width="54" height="16" viewBox="0 0 54 16" fill="none" xmlns="http://www.w3.org/2000/svg">
<path d="M0 7.99967H5.33333M5.33333 7.99967C5.33333 7.29243 5.61428 6.61415 6.11438 6.11406C6.61448 5.61396 7.29276 5.33301 8 5.33301C8.70724 5.33301 9.38552 5.61396 9.88562 6.11406C10.3857 6.61415 10.6667 7.29243 10.6667 7.99967M5.33333 7.99967C5.33333 8.70692 5.61428 9.3852 6.11438 9.88529C6.61448 10.3854 7.29276 10.6663 8 10.6663C8.70724 10.6663 9.38552 10.3854 9.88562 9.88529C10.3857 9.3852 10.6667 8.70692 10.6667 7.99967M10.6667 7.99967H16" stroke="#009FE3" stroke-width="1.94519"/>
<path d="M27.6772 9.186H29.4692C29.5112 9.9 30.0992 10.544 31.1352 10.544C32.1012 10.544 32.6892 10.04 32.7312 9.382C32.7732 8.752 32.3252 8.318 31.4012 8.066L30.2112 7.758C28.1112 7.156 27.7752 5.91 27.7752 5.07C27.7752 3.376 29.2452 2.242 31.0232 2.242C32.8432 2.242 34.2292 3.362 34.2292 5.154H32.4372C32.4372 4.384 31.8912 3.894 30.9952 3.894C30.1972 3.894 29.5532 4.342 29.5532 5.028C29.5532 5.308 29.6652 5.882 30.7012 6.134L31.8912 6.484C34.0612 7.086 34.5932 8.29 34.5232 9.424C34.4532 11.16 32.8852 12.154 31.1352 12.154C29.0772 12.154 27.6772 10.838 27.6772 9.186ZM36.3173 12V2.354H42.2813V3.95H38.0953V6.456H41.7633V8.038H38.0953V10.404H42.4213V12H36.3173ZM45.3413 7.198C45.3413 8.962 46.6993 10.376 48.4493 10.376C50.1713 10.376 51.5573 8.962 51.5573 7.198C51.5573 5.448 50.1713 4.006 48.4493 4.006C46.6993 4.006 45.3413 5.448 45.3413 7.198ZM43.5633 7.198C43.5633 4.468 45.7053 2.242 48.4493 2.242C51.1933 2.242 53.3493 4.468 53.3493 7.198C53.3493 9.914 51.1933 12.14 48.4493 12.14C45.7053 12.14 43.5633 9.914 43.5633 7.198Z" fill="#009FE3"/>
</svg>
