<svg width="82" height="16" viewBox="0 0 82 16" fill="none" xmlns="http://www.w3.org/2000/svg">
<path d="M0 7.99967H5.33333M5.33333 7.99967C5.33333 7.29243 5.61428 6.61415 6.11438 6.11406C6.61448 5.61396 7.29276 5.33301 8 5.33301C8.70724 5.33301 9.38552 5.61396 9.88562 6.11406C10.3857 6.61415 10.6667 7.29243 10.6667 7.99967M5.33333 7.99967C5.33333 8.70692 5.61428 9.3852 6.11438 9.88529C6.61448 10.3854 7.29276 10.6663 8 10.6663C8.70724 10.6663 9.38552 10.3854 9.88562 9.88529C10.3857 9.3852 10.6667 8.70692 10.6667 7.99967M10.6667 7.99967H16" stroke="#121212" stroke-width="1.94519"/>
<path d="M31.4016 2.354V12H29.7636L26.0396 5.658V12H24.2616V2.354H25.9276L29.6096 8.626V2.354H31.4016ZM36.4259 10.46C37.3779 10.46 38.1339 9.774 38.1339 8.71C38.1339 7.66 37.3779 7.002 36.4259 7.002C35.4739 7.002 34.7179 7.66 34.7179 8.71C34.7179 9.774 35.4739 10.46 36.4259 10.46ZM36.4259 12.126C34.5779 12.126 33.0239 10.768 33.0239 8.71C33.0239 6.638 34.5779 5.322 36.4259 5.322C38.2739 5.322 39.8279 6.638 39.8279 8.71C39.8279 10.768 38.2739 12.126 36.4259 12.126ZM43.0676 8.514V12H41.3596V5.462H43.0676V6.428C43.4456 5.714 44.2436 5.322 45.0136 5.322C46.5396 5.322 47.4496 6.274 47.4496 8.136V12H45.7416V8.444C45.7416 7.492 45.2376 6.988 44.4956 6.988C43.7116 6.988 43.0676 7.38 43.0676 8.514ZM49.2189 9.326V7.898H54.1329V9.326H49.2189ZM55.6528 9.186H57.4448C57.4868 9.9 58.0748 10.544 59.1108 10.544C60.0768 10.544 60.6648 10.04 60.7068 9.382C60.7488 8.752 60.3008 8.318 59.3768 8.066L58.1868 7.758C56.0868 7.156 55.7508 5.91 55.7508 5.07C55.7508 3.376 57.2208 2.242 58.9988 2.242C60.8188 2.242 62.2048 3.362 62.2048 5.154H60.4128C60.4128 4.384 59.8668 3.894 58.9708 3.894C58.1728 3.894 57.5288 4.342 57.5288 5.028C57.5288 5.308 57.6408 5.882 58.6768 6.134L59.8668 6.484C62.0368 7.086 62.5688 8.29 62.4988 9.424C62.4288 11.16 60.8608 12.154 59.1108 12.154C57.0528 12.154 55.6528 10.838 55.6528 9.186ZM64.2929 12V2.354H70.2569V3.95H66.0709V6.456H69.7389V8.038H66.0709V10.404H70.3969V12H64.2929ZM73.3169 7.198C73.3169 8.962 74.6749 10.376 76.4249 10.376C78.1469 10.376 79.5329 8.962 79.5329 7.198C79.5329 5.448 78.1469 4.006 76.4249 4.006C74.6749 4.006 73.3169 5.448 73.3169 7.198ZM71.5389 7.198C71.5389 4.468 73.6809 2.242 76.4249 2.242C79.1689 2.242 81.3249 4.468 81.3249 7.198C81.3249 9.914 79.1689 12.14 76.4249 12.14C73.6809 12.14 71.5389 9.914 71.5389 7.198Z" fill="#121212"/>
</svg>
