<svg width="156" height="16" viewBox="0 0 156 16" fill="none" xmlns="http://www.w3.org/2000/svg">
<path d="M0 7.99967H5.33333M5.33333 7.99967C5.33333 7.29243 5.61428 6.61415 6.11438 6.11406C6.61448 5.61396 7.29276 5.33301 8 5.33301C8.70724 5.33301 9.38552 5.61396 9.88562 6.11406C10.3857 6.61415 10.6667 7.29243 10.6667 7.99967M5.33333 7.99967C5.33333 8.70692 5.61428 9.3852 6.11438 9.88529C6.61448 10.3854 7.29276 10.6663 8 10.6663C8.70724 10.6663 9.38552 10.3854 9.88562 9.88529C10.3857 9.3852 10.6667 8.70692 10.6667 7.99967M10.6667 7.99967H16" stroke="#009FE3" stroke-width="1.94519"/>
<path d="M27.6772 9.186H29.4692C29.5112 9.9 30.0992 10.544 31.1352 10.544C32.1012 10.544 32.6892 10.04 32.7312 9.382C32.7732 8.752 32.3252 8.318 31.4012 8.066L30.2112 7.758C28.1112 7.156 27.7752 5.91 27.7752 5.07C27.7752 3.376 29.2452 2.242 31.0232 2.242C32.8432 2.242 34.2292 3.362 34.2292 5.154H32.4372C32.4372 4.384 31.8912 3.894 30.9952 3.894C30.1972 3.894 29.5532 4.342 29.5532 5.028C29.5532 5.308 29.6652 5.882 30.7012 6.134L31.8912 6.484C34.0612 7.086 34.5932 8.29 34.5232 9.424C34.4532 11.16 32.8852 12.154 31.1352 12.154C29.0772 12.154 27.6772 10.838 27.6772 9.186ZM36.3173 12V2.354H42.2813V3.95H38.0953V6.456H41.7633V8.038H38.0953V10.404H42.4213V12H36.3173ZM45.3413 7.198C45.3413 8.962 46.6993 10.376 48.4493 10.376C50.1713 10.376 51.5573 8.962 51.5573 7.198C51.5573 5.448 50.1713 4.006 48.4493 4.006C46.6993 4.006 45.3413 5.448 45.3413 7.198ZM43.5633 7.198C43.5633 4.468 45.7053 2.242 48.4493 2.242C51.1933 2.242 53.3493 4.468 53.3493 7.198C53.3493 9.914 51.1933 12.14 48.4493 12.14C45.7053 12.14 43.5633 9.914 43.5633 7.198Z" fill="#009FE3"/>
<path d="M74 7.99967H79.3333M79.3333 7.99967C79.3333 7.29243 79.6143 6.61415 80.1144 6.11406C80.6145 5.61396 81.2928 5.33301 82 5.33301C82.7072 5.33301 83.3855 5.61396 83.8856 6.11406C84.3857 6.61415 84.6667 7.29243 84.6667 7.99967M79.3333 7.99967C79.3333 8.70692 79.6143 9.3852 80.1144 9.88529C80.6145 10.3854 81.2928 10.6663 82 10.6663C82.7072 10.6663 83.3855 10.3854 83.8856 9.88529C84.3857 9.3852 84.6667 8.70692 84.6667 7.99967M84.6667 7.99967H90" stroke="#121212" stroke-width="1.94519"/>
<path d="M105.402 2.354V12H103.764L100.04 5.658V12H98.2616V2.354H99.9276L103.61 8.626V2.354H105.402ZM110.426 10.46C111.378 10.46 112.134 9.774 112.134 8.71C112.134 7.66 111.378 7.002 110.426 7.002C109.474 7.002 108.718 7.66 108.718 8.71C108.718 9.774 109.474 10.46 110.426 10.46ZM110.426 12.126C108.578 12.126 107.024 10.768 107.024 8.71C107.024 6.638 108.578 5.322 110.426 5.322C112.274 5.322 113.828 6.638 113.828 8.71C113.828 10.768 112.274 12.126 110.426 12.126ZM117.068 8.514V12H115.36V5.462H117.068V6.428C117.446 5.714 118.244 5.322 119.014 5.322C120.54 5.322 121.45 6.274 121.45 8.136V12H119.742V8.444C119.742 7.492 119.238 6.988 118.496 6.988C117.712 6.988 117.068 7.38 117.068 8.514ZM123.219 9.326V7.898H128.133V9.326H123.219ZM129.653 9.186H131.445C131.487 9.9 132.075 10.544 133.111 10.544C134.077 10.544 134.665 10.04 134.707 9.382C134.749 8.752 134.301 8.318 133.377 8.066L132.187 7.758C130.087 7.156 129.751 5.91 129.751 5.07C129.751 3.376 131.221 2.242 132.999 2.242C134.819 2.242 136.205 3.362 136.205 5.154H134.413C134.413 4.384 133.867 3.894 132.971 3.894C132.173 3.894 131.529 4.342 131.529 5.028C131.529 5.308 131.641 5.882 132.677 6.134L133.867 6.484C136.037 7.086 136.569 8.29 136.499 9.424C136.429 11.16 134.861 12.154 133.111 12.154C131.053 12.154 129.653 10.838 129.653 9.186ZM138.293 12V2.354H144.257V3.95H140.071V6.456H143.739V8.038H140.071V10.404H144.397V12H138.293ZM147.317 7.198C147.317 8.962 148.675 10.376 150.425 10.376C152.147 10.376 153.533 8.962 153.533 7.198C153.533 5.448 152.147 4.006 150.425 4.006C148.675 4.006 147.317 5.448 147.317 7.198ZM145.539 7.198C145.539 4.468 147.681 2.242 150.425 2.242C153.169 2.242 155.325 4.468 155.325 7.198C155.325 9.914 153.169 12.14 150.425 12.14C147.681 12.14 145.539 9.914 145.539 7.198Z" fill="#121212"/>
</svg>
