<svg width="30" height="30" viewBox="0 0 30 30" fill="none" xmlns="http://www.w3.org/2000/svg">
<path d="M29.8775 8.71553C30.243 9.68549 29.751 10.7632 28.781 11.1287C27.8111 11.4942 26.7286 11.0022 26.3678 10.0322C25.2995 7.18797 24.7653 5.76349 23.9593 5.00908C23.6267 4.69982 23.2565 4.4421 22.8488 4.24061C21.8648 3.7486 20.3372 3.7486 17.3008 3.7486H12.6994C9.66301 3.7486 8.14013 3.7486 7.15143 4.24061C6.74377 4.4421 6.37359 4.69982 6.0409 5.00908C5.23494 5.7588 4.70076 7.18797 3.6324 10.0322C3.2716 11.0022 2.18918 11.4942 1.21923 11.1287C0.249268 10.7632 -0.24274 9.68549 0.122752 8.71553C1.35511 5.4308 2.03455 3.62209 3.48246 2.26789C4.07755 1.71029 4.75231 1.24639 5.48329 0.880902C7.2592 -2.47955e-05 9.18975 -2.76566e-05 12.6994 -2.76566e-05H17.3008C20.8105 -2.76566e-05 22.741 -2.47955e-05 24.5169 0.880902C25.2479 1.24171 25.918 1.71029 26.5178 2.26789C27.9657 3.6174 28.6451 5.4308 29.8775 8.71553Z" fill="#009FE3"/>
<path d="M6.43468 18.4167C5.45066 17.7279 5.36632 16.3597 6.17696 15.549L11.2001 10.5259C11.7484 9.97764 12.3856 9.52781 13.1119 9.25603C15.1268 8.49693 17.2963 9.02174 18.7255 10.4509L23.8236 15.549C24.6436 16.3691 24.5452 17.7654 23.5191 18.4495C22.774 18.9462 21.7713 18.801 21.1387 18.1684L16.8746 13.9043V24.7613C16.8746 25.0752 16.8746 26.7528 16.8746 28.1257C16.8746 29.1612 16.0359 30 15.0003 30C13.9647 30 13.126 29.1612 13.126 28.1257V18.2855V13.909L8.90409 18.1309C8.24808 18.7869 7.19377 18.9556 6.43468 18.4214V18.4167Z" fill="#009FE3"/>
</svg>
